{
  "asset": { "version": "2.0", "generator": "mc2 hand-authored fixture (ASSIMP-IMPORTER-PHASE-0)" },
  "scene": 0,
  "scenes": [ { "nodes": [ 0 ] } ],
  "nodes": [ { "mesh": 0, "name": "Cube" } ],
  "meshes": [
    {
      "name": "CubeMesh",
      "primitives": [
        {
          "attributes": { "POSITION": 0, "NORMAL": 1 },
          "indices": 2,
          "mode": 4,
          "material": 0
        }
      ]
    }
  ],
  "materials": [ { "name": "CubeMaterial" } ],
  "accessors": [
    {
      "bufferView": 0,
      "componentType": 5126,
      "count": 24,
      "type": "VEC3",
      "min": [ -1.0, -1.0, -1.0 ],
      "max": [ 1.0, 1.0, 1.0 ]
    },
    {
      "bufferView": 1,
      "componentType": 5126,
      "count": 24,
      "type": "VEC3"
    },
    {
      "bufferView": 2,
      "componentType": 5123,
      "count": 36,
      "type": "SCALAR"
    }
  ],
  "bufferViews": [
    { "buffer": 0, "byteOffset": 0,   "byteLength": 288, "target": 34962 },
    { "buffer": 0, "byteOffset": 288, "byteLength": 288, "target": 34962 },
    { "buffer": 0, "byteOffset": 576, "byteLength": 72,  "target": 34963 }
  ],
  "buffers": [
    {
      "byteLength": 648,
      "uri": "data:application/octet-stream;base64,"
    }
  ]
}
